<svg xmlns="http://www.w3.org/2000/svg" xmlns:xlink="http://www.w3.org/1999/xlink" version="1.1" x="0px" y="0px" viewBox="0 0 32 40" enable-background="new 0 0 32 32" xml:space="preserve"><g><polygon points="11,6 13,2 12,2 10,6  "/><path d="M9,6l2-4H3C2.4477539,2,2,2.4477539,2,3v3H9z M7,3c0.5523071,0,1,0.4476929,1,1S7.5523071,5,7,5   C6.4477539,5,6,4.5523071,6,4S6.4477539,3,7,3z M4,3c0.5523071,0,1,0.4476929,1,1S4.5523071,5,4,5C3.4477539,5,3,4.5523071,3,4   S3.4477539,3,4,3z"/><path d="M30,6V3c0-0.5522461-0.4477539-1-1-1H14l-2,4H30z"/><path d="M12,19.5002441c0-0.2763672,0.2236328-0.5,0.5-0.5H14v-2.6171265l-4,2.3999634v4.8338623l4-2.4001465v-1.2165527h-1.5   C12.2236328,20.0002441,12,19.7766113,12,19.5002441z"/><polygon points="9,18.7830811 5,16.3831177 5,21.2167969 9,23.6169434  "/><polygon points="9.5,17.9169922 13.5280762,15.500061 9.5,13.0830078 5.4719238,15.500061  "/><polygon points="22.499939,17.9169922 26.5280151,15.500061 22.499939,13.0830078 18.4718628,15.500061  "/><path d="M2,7v22c0,0.5522461,0.4477539,1,1,1h26c0.5522461,0,1-0.4477539,1-1V7H2z M27.999939,21.5   c0,0.1757813-0.0922852,0.3383789-0.2426758,0.4287109l-5,3C22.6781616,24.9760742,22.5888062,25,22.499939,25   s-0.1782227-0.0239258-0.2573242-0.0712891l-5-3C17.0922241,21.8383789,16.999939,21.6757813,16.999939,21.5v-1.4997559H15V21.5   c0,0.1757813-0.0922852,0.3383789-0.2426758,0.4287109l-5,3C9.6782227,24.9760742,9.5888672,25,9.5,25   s-0.1782227-0.0239258-0.2573242-0.0712891l-5-3C4.0922852,21.8383789,4,21.6757813,4,21.5v-6   c0-0.1757813,0.0922852-0.3383789,0.2426758-0.4287109l5-3c0.1582031-0.0947266,0.3564453-0.0947266,0.5146484,0l5,3   C14.9077148,15.1616211,15,15.3242188,15,15.5v3.5002441h1.999939V15.5c0-0.1757813,0.0922852-0.3383789,0.2426758-0.4287109l5-3   c0.1582031-0.0947266,0.3564453-0.0947266,0.5146484,0l5,3C27.9076538,15.1616211,27.999939,15.3242188,27.999939,15.5V21.5z"/><path d="M21.999939,18.7830811l-4-2.3999634v2.6171265H19.5c0.2763672,0,0.5,0.2236328,0.5,0.5s-0.2236328,0.5-0.5,0.5h-1.500061   v1.2165527l4,2.4001465V18.7830811z"/><polygon points="22.999939,18.7830811 22.999939,23.6169434 26.999939,21.2167969 26.999939,16.3831177  "/></g><text x="0" y="47" fill="#000000" font-size="5px" font-weight="bold" font-family="'Helvetica Neue', Helvetica, Arial-Unicode, Arial, Sans-serif">Created by M. Oki Orlando</text><text x="0" y="52" fill="#000000" font-size="5px" font-weight="bold" font-family="'Helvetica Neue', Helvetica, Arial-Unicode, Arial, Sans-serif">from the Noun Project</text></svg>